# xmcd CD database file
#
# Track frame offsets:
#	150
#	10787
#	23497
#	38505
#	49780
#	65515
#	77012
#	89712
#	106652
#	124200
#	135807
#	159892
#	170450
#	192762
#	213945
#	238852
#	258337
#	273905
#	290002
#	302872
#	320400
#	336065
#
# Disc length: 4690 seconds
#
# Revision: 0
# Processed by: cddbd v1.5.2PL0 Copyright (c) Steve Scherf et al.
# Submitted via: CDex 1.51
#
DISCID=22125016
DTITLE=Various Artist - Dutch Jazz Masters - All that jazz
DYEAR=1999
DGENRE=Jazz
TTITLE0=Nobody else but Elsie - Leo H. de la Fuente
TTITLE1=Oh, lady be good - Red Debroy's Swingers
TTITLE2=Blues - The Max Geldray Quartet
TTITLE3=Kareltje in de bocht - Charlie Nederpelt Combo
TTITLE4=All of me - Johnny Meijer
TTITLE5=I'm coming home Virginia - The Red and Brown Brothers
TTITLE6=Limehouse Blues - Frans Poptie and his Swing Specials
TTITLE7=Ol' man River - Herman Schoonderwalt Orchestra
TTITLE8=My big fat mama - Max Woiski sr. and his West-Indian Orchestra
TTITLE9=Stompin' at The Savoy - Various
TTITLE10=Vers II - Gijs Hendriks
TTITLE11=Ray's tribute to Harry (James) - Rob Hoeke and Hein van der Gaag
TTITLE12=Luiermuziek - Willem Breuker Kollektief
TTITLE13=Hallelujah time - Intrioduction
TTITLE14=Carbow - Hans Dulfer
TTITLE15=Chelsea Bridge - Harry Verbeke
TTITLE16=T.V. - Nueva Manteca
TTITLE17=More rhythm - Ben van den Dungen and Jarmo Hoogendijk Quintet
TTITLE18=Agua de beber - Josee Koning
TTITLE19=No more yesterdays - The Houdini's
TTITLE20=Express Train Boogie - Martijn Schok Boogie Woogie Trio
TTITLE21=Albatross ('98) - Jesse van Ruller
EXTD=YEAR: 1999
EXTT0=
EXTT1=
EXTT2=
EXTT3=
EXTT4=
EXTT5=
EXTT6=
EXTT7=
EXTT8=
EXTT9=
EXTT10=
EXTT11=
EXTT12=
EXTT13=
EXTT14=
EXTT15=
EXTT16=
EXTT17=
EXTT18=
EXTT19=
EXTT20=
EXTT21=
PLAYORDER=
